#!OML:ASF E:\Style4\Style4.ASF
:FULLY-SPECIFIED
:DEGREES
3009
root -0.244131 17.6923 -0.0978206 -4.33379 3.54702 3.55929
lowerback 2.48011 1.54259 -2.02238
upperback 2.8634 2.03155 0.233075
thorax 1.46868 0.978832 1.34664
lowerneck 2.60702 -2.09674 -4.8931
upperneck 24.8626 -2.7996 0.987856
head 7.28195 -1.66452 1.0139
rclavicle -1.89964e-014 5.96354e-015
rhumerus 36.6105 -8.48105 -41.0348
rradius 65.7725
rwrist -0.051762
rhand 27.8499 4.39573
rfingers 7.12502
rthumb 51.7639 -15.8491
lclavicle -1.89964e-014 5.96354e-015
lhumerus 25.8199 7.28176 34.6702
lradius 90.2345
lwrist 8.24678
lhand 30.147 35.6983
lfingers 7.12502
lthumb 53.8391 54.6445
rfemur -4.57978 -3.5925 15.481
rtibia 32.3133
rfoot -21.405 -19.2647
rtoes -12.732
lfemur -3.30219 1.62586 -20.7141
ltibia 26.874
lfoot -19.2713 5.08064
ltoes -11.5992
3010
root -0.244586 17.6825 -0.0929284 -4.47933 3.60094 3.54021
lowerback 2.57359 1.4749 -2.07377
upperback 2.81115 1.9374 0.278446
thorax 1.36306 0.931953 1.41968
lowerneck 2.58595 -2.08137 -4.98225
upperneck 25.0545 -2.78948 1.05807
head 7.352 -1.66437 1.05225
rclavicle -2.01269e-014 -1.19271e-015
rhumerus 36.1632 -8.43534 -41.4692
rradius 66.4397
rwrist 0.2324
rhand 27.7852 4.52367
rfingers 7.12502
rthumb 51.7051 -15.7555
lclavicle -2.01269e-014 -1.19271e-015
lhumerus 25.3339 7.54946 35.0567
lradius 91.0849
lwrist 8.27013
lhand 30.1119 35.6735
lfingers 7.12502
lthumb 53.8076 54.6408
rfemur -4.50957 -3.75597 15.4559
rtibia 32.5376
rfoot -21.5507 -19.1954
rtoes -12.8549
lfemur -3.32774 1.65109 -20.6688
ltibia 27.232
lfoot -19.4445 4.87686
ltoes -11.0998
3011
root -0.246737 17.6717 -0.0894128 -4.57098 3.66539 3.51281
lowerback 2.57391 1.35132 -2.18126
upperback 2.75402 1.76958 0.374283
thorax 1.30482 0.846365 1.57985
lowerneck 2.59941 -2.00677 -5.17232
upperneck 25.2711 -2.69076 1.10715
head 7.42344 -1.63332 1.10629
rclavicle 1.78906e-014 -4.37326e-015
rhumerus 35.8529 -8.25157 -41.9573
rradius 67.0287
rwrist 0.590023
rhand 27.7012 4.64464
rfingers 7.12502
rthumb 51.6288 -15.6789
lclavicle 1.78906e-014 -4.37326e-015
lhumerus 24.788 7.90118 35.5544
lradius 91.9212
lwrist 8.23344
lhand 30.1194 35.684
lfingers 7.12502
lthumb 53.8143 54.6468
rfemur -4.5182 -3.89149 15.4647
rtibia 32.8004
rfoot -21.7433 -19.1633
rtoes -12.8042
lfemur -3.39556 1.71972 -20.6143
ltibia 27.5575
lfoot -19.561 4.82846
ltoes -11.7585
3012
root -0.250315 17.6597 -0.0881144 -4.62668 3.70421 3.47948
lowerback 2.53683 1.26569 -2.29024
upperback 2.71371 1.65358 0.459091
thorax 1.28389 0.786322 1.73007
lowerneck 2.60152 -1.95706 -5.20591
upperneck 25.4174 -2.6136 1.06674
head 7.47004 -1.60476 1.10301
rclavicle -2.72335e-014 -3.1408e-014
rhumerus 35.5022 -8.1826 -42.4739
rradius 67.659
rwrist 0.973408
rhand 27.799 4.7006
rfingers 7.12502
rthumb 51.7177 -15.5712
lclavicle -2.72335e-014 -3.1408e-014
lhumerus 24.302 8.21808 36.0963
lradius 92.8275
lwrist 7.99432
lhand 30.2404 35.6795
lfingers 7.12502
lthumb 53.923 54.5695
rfemur -4.62344 -3.96899 15.4961
rtibia 33.1113
rfoot -21.9055 -19.1309
rtoes -12.1693
lfemur -3.49686 1.78117 -20.5524
ltibia 27.8592
lfoot -19.672 4.75918
ltoes -11.7851
3013
root -0.253336 17.6486 -0.08755 -4.70654 3.74818 3.51133
lowerback 2.54051 1.22194 -2.41576
upperback 2.70191 1.59301 0.487781
thorax 1.26865 0.754012 1.83056
lowerneck 2.59014 -1.95857 -5.15901
upperneck 25.5187 -2.60829 1.01955
head 7.50467 -1.60304 1.07957
rclavicle 6.84565e-015 -1.15295e-014
rhumerus 35.095 -8.22011 -42.9517
rradius 68.3549
rwrist 1.29882
rhand 27.9093 4.64727
rfingers 7.12502
rthumb 51.8179 -15.5659
lclavicle 6.84565e-015 -1.15295e-014
lhumerus 23.9024 8.49737 36.6203
lradius 93.7932
lwrist 7.76468
lhand 30.301 35.6838
lfingers 7.12502
lthumb 53.9773 54.5372
rfemur -4.70857 -4.10522 15.4487
rtibia 33.4383
rfoot -21.9406 -19.0693
rtoes -12.0683
lfemur -3.58108 1.80976 -20.5641
ltibia 28.167
lfoot -19.8271 4.5891
ltoes -11.1837
